<svg version="1.2" xmlns="http://www.w3.org/2000/svg" viewBox="0 0 106 118" width="106" height="118"><style>.a{fill:#3a4583}</style><path class="a" d="m75.4 84.4v-10.1h-10v-6.2c0-2.8 2.2-5.1 5-5.1q0.1 0 0.1 0h10.1v-10.1h-10.1c0 0 0 0-0.1 0-8.3 0-15.1 6.8-15.1 15.1v37.8h10.1v-21.4c0 0 10 0 10 0z"/><path class="a" d="m93 117.9q-0.8 0-1.5-0.3-0.8-0.2-1.3-0.5l0.6-1.3q0.5 0.3 1.1 0.5 0.6 0.1 1.2 0.1 0.5 0 0.9-0.1 0.3-0.2 0.3-0.5 0-0.3-0.3-0.4-0.3-0.2-1.1-0.4-1-0.2-1.5-0.5-0.6-0.3-0.8-0.6-0.2-0.4-0.2-1 0-0.7 0.3-1.2 0.4-0.5 1.1-0.8 0.6-0.3 1.5-0.3 0.8 0 1.5 0.2 0.7 0.2 1.1 0.6l-0.6 1.3q-0.4-0.3-1-0.5-0.5-0.2-1-0.2-0.5 0-0.8 0.2-0.3 0.2-0.3 0.6 0 0.1 0.1 0.3 0.1 0.1 0.4 0.2 0.3 0.1 0.9 0.2 1 0.2 1.5 0.5 0.6 0.3 0.8 0.7 0.2 0.4 0.2 1 0 1-0.8 1.6-0.8 0.6-2.3 0.6m-8.3 0q-1.1 0-1.9-0.5-0.8-0.4-1.2-1.3-0.5-0.8-0.5-1.9 0-1.1 0.5-1.9 0.4-0.8 1.2-1.3 0.8-0.4 1.9-0.4 1.1 0 1.9 0.4 0.8 0.5 1.2 1.3 0.5 0.8 0.5 1.9 0 1.1-0.5 1.9-0.4 0.9-1.2 1.3-0.8 0.5-1.9 0.5zm0-1.5q0.8 0 1.2-0.5 0.5-0.6 0.5-1.7 0-1.1-0.5-1.6-0.4-0.6-1.2-0.6-0.8 0-1.2 0.6-0.5 0.5-0.5 1.6 0 1.1 0.5 1.7 0.4 0.5 1.2 0.5zm-9.9 1.4v-7.1h1.9v5.6h3v1.5zm-6.9 0v-7.1h1.9v5.6h3v1.5zm-5.8 0.1q-1.1 0-1.9-0.5-0.8-0.4-1.2-1.3-0.5-0.8-0.4-1.9 0-1.1 0.4-1.9 0.4-0.8 1.2-1.3 0.8-0.4 1.9-0.4 1.1 0 1.9 0.4 0.8 0.5 1.2 1.3 0.5 0.8 0.5 1.9 0 1.1-0.5 1.9-0.4 0.9-1.2 1.3-0.8 0.5-1.9 0.5zm0-1.5q0.8 0 1.3-0.5 0.4-0.6 0.4-1.7 0-1.1-0.4-1.6-0.5-0.6-1.3-0.6-0.8 0-1.2 0.6-0.5 0.5-0.5 1.6 0 1.1 0.5 1.7 0.4 0.5 1.2 0.5zm-5.4 1.4h-2l-0.9-2.4q-0.2-0.4-0.7-0.4h-0.7v2.8h-1.9v-7.1h3.3q1.3 0 2 0.5 0.6 0.6 0.6 1.6 0 0.7-0.4 1.3-0.4 0.5-1.1 0.7 0.3 0.1 0.6 0.3 0.2 0.2 0.4 0.6zm-3.2-4.2q0.6 0 0.9-0.2 0.2-0.1 0.2-0.5 0-0.4-0.2-0.6-0.3-0.2-0.9-0.2h-1.2v1.5h1.2zm-5.1 4.2h-1.9l-1-2.4q-0.1-0.4-0.7-0.4h-0.7v2.8h-1.8v-7.1h3.3q1.2 0 1.9 0.5 0.6 0.6 0.6 1.6 0 0.7-0.3 1.3-0.4 0.5-1.1 0.7 0.3 0.1 0.5 0.3 0.3 0.2 0.4 0.6zm-3.2-4.2q0.6 0 0.9-0.2 0.3-0.1 0.3-0.5 0-0.4-0.3-0.6-0.3-0.2-0.9-0.2h-1.1v1.5h1.1zm-6.3 4.2l-0.7-1.5h-3.1l-0.6 1.5h-1.9l3.3-7.1h1.5l3.3 7.1h-1.9zm-3.1-2.9h1.9l-1-2.2c0 0-0.9 2.2-0.9 2.2zm-7.4 3q-0.8 0-1.6-0.3-0.8-0.2-1.2-0.5l0.6-1.3q0.5 0.3 1.1 0.5 0.5 0.1 1.1 0.1 0.6 0 0.9-0.1 0.4-0.2 0.4-0.5 0-0.3-0.3-0.4-0.3-0.2-1.1-0.4-1-0.2-1.6-0.5-0.5-0.3-0.7-0.7-0.3-0.3-0.3-0.9 0-0.7 0.4-1.2 0.4-0.5 1-0.8 0.7-0.3 1.6-0.3 0.7 0 1.5 0.2 0.7 0.2 1.1 0.6l-0.6 1.3q-0.5-0.3-1-0.5-0.5-0.2-1-0.2-0.5 0-0.8 0.2-0.4 0.2-0.3 0.5 0 0.2 0.1 0.3 0.1 0.2 0.4 0.3 0.3 0.1 0.9 0.2 0.9 0.2 1.5 0.5 0.5 0.3 0.8 0.7 0.2 0.4 0.2 0.9 0 1.1-0.8 1.7-0.8 0.6-2.3 0.6zm-9.6-0.1v-7.1h5.1v1.4h-3.3v1.4h3.1v1.4h-3.1v1.4h3.3v1.5zm-8.9-7.1h2.9q1.1 0 2 0.4 0.8 0.4 1.3 1.2 0.4 0.8 0.4 1.9 0 1.1-0.4 1.9-0.5 0.8-1.3 1.2-0.9 0.5-2 0.5h-2.9c0 0 0-7.1 0-7.1zm2.7 5.6q1.1 0 1.6-0.5 0.5-0.5 0.5-1.6 0-2-2.1-2h-0.9v4.1z"/><path class="a" d="m40.4 76.4v14.3c0 2.8-2.2 5-5 5-2.8 0-5.1-2.2-5.1-5v-14.3-23.5h-10.1v37.8c0 2.8-2.2 5-5 5-2.8 0-5.1-2.2-5.1-5v-37.8h-10.1v37.8c0 8.4 6.8 15.1 15.2 15.1 3.9 0 7.4-1.4 10.1-3.8 2.7 2.4 6.2 3.8 10.1 3.8 8.3 0 15.1-6.8 15.1-15.1v-37.8h-10.1z"/><path class="a" d="m105.8 52.9h-5.1c0 0 0 0 0 0-8.4 0-15.2 6.8-15.2 15.2v22.6c0 2.8-2.3 5.1-5.1 5.1h-5v10h5c8.4 0 15.2-6.7 15.2-15.1v-21.8-0.8c0-2.9 2.2-5.1 5.1-5.1q0 0 0 0h5.1v-10.1z"/><path fill-rule="evenodd" class="a" d="m40.4 0h14.9v48.1h-14.9z"/><path fill-rule="evenodd" class="a" d="m35.4 30l-15.2 15.2v2.9h15.2v-18.1z"/><path fill-rule="evenodd" class="a" d="m75.4 30.2v17.9l10.2 0.1v-7.8l-10.2-10.2z"/><path fill-rule="evenodd" class="a" d="m70.4 15.1l-10.1-10v43.1h10.1v-33.1z"/></svg>